<svg aria-hidden="true" style="position: absolute; width: 0; height: 0; overflow: hidden;" version="1.1" xmlns="http://www.w3.org/2000/svg" xmlns:xlink="http://www.w3.org/1999/xlink">
<defs>
<symbol id="icon-git-pull-request" viewBox="0 0 24 24">
<title>git-pull-request</title>
<path d="M19 14.1v-6.1c0-1.7-1.3-3-3-3h-3c-0.6 0-1 0.4-1 1s0.4 1 1 1h3c0.6 0 1 0.4 1 1v6.1c-1.7 0.4-3 2-3 3.9 0 2.2 1.8 4 4 4s4-1.8 4-4c0-1.9-1.3-3.4-3-3.9zM18 20c-1.1 0-2-0.9-2-2s0.9-2 2-2 2 0.9 2 2-0.9 2-2 2z"></path>
<path d="M6 2c-2.2 0-4 1.8-4 4 0 1.9 1.3 3.4 3 3.9v11.1c0 0.6 0.4 1 1 1s1-0.4 1-1v-11.1c1.7-0.4 3-2 3-3.9 0-2.2-1.8-4-4-4zM6 8c-1.1 0-2-0.9-2-2s0.9-2 2-2 2 0.9 2 2-0.9 2-2 2z"></path>
</symbol>
<symbol id="icon-home" viewBox="0 0 24 24">
<title>home</title>
<path d="M21.6 8.2l-9-7c-0.4-0.3-0.9-0.3-1.2 0l-9 7c-0.3 0.2-0.4 0.5-0.4 0.8v11c0 1.7 1.3 3 3 3h14c1.7 0 3-1.3 3-3v-11c0-0.3-0.1-0.6-0.4-0.8zM14 21h-4v-8h4v8zM20 20c0 0.6-0.4 1-1 1h-3v-9c0-0.6-0.4-1-1-1h-6c-0.6 0-1 0.4-1 1v9h-3c-0.6 0-1-0.4-1-1v-10.5l8-6.2 8 6.2v10.5z"></path>
</symbol>
<symbol id="icon-menu" viewBox="0 0 24 24">
<title>menu</title>
<path d="M21 11h-18c-0.6 0-1 0.4-1 1s0.4 1 1 1h18c0.6 0 1-0.4 1-1s-0.4-1-1-1z"></path>
<path d="M3 7h18c0.6 0 1-0.4 1-1s-0.4-1-1-1h-18c-0.6 0-1 0.4-1 1s0.4 1 1 1z"></path>
<path d="M21 17h-18c-0.6 0-1 0.4-1 1s0.4 1 1 1h18c0.6 0 1-0.4 1-1s-0.4-1-1-1z"></path>
</symbol>
<symbol id="icon-settings" viewBox="0 0 24 24">
<title>settings</title>
<path d="M12 8c-2.2 0-4 1.8-4 4s1.8 4 4 4c2.2 0 4-1.8 4-4s-1.8-4-4-4zM12 14c-1.1 0-2-0.9-2-2s0.9-2 2-2c1.1 0 2 0.9 2 2s-0.9 2-2 2z"></path>
<path d="M20.3 15.4c0.1-0.2 0.3-0.4 0.7-0.4 1.7 0 3-1.3 3-3s-1.3-3-3-3h-0.2c-0.2 0-0.4-0.1-0.5-0.3 0-0.1 0-0.1-0.1-0.2-0.1-0.2-0.1-0.5 0.2-0.8 1.2-1.2 1.2-3.1 0-4.2v0c0 0 0 0 0 0-0.6-0.6-1.3-0.9-2.1-0.9 0 0 0 0 0 0-0.8 0-1.6 0.3-2.2 0.9-0.2 0.2-0.5 0.2-0.7 0.1-0.2 0-0.4-0.3-0.4-0.6 0-1.7-1.3-3-3-3s-3 1.3-3 3v0.2c0 0.2-0.1 0.4-0.3 0.5-0.1 0-0.1 0-0.2 0.1-0.2 0.1-0.5 0-0.8-0.2-1.2-1.2-3.1-1.2-4.2 0-1.2 1.2-1.2 3.1 0.1 4.3 0.2 0.2 0.2 0.5 0.1 0.8-0.1 0.2-0.4 0.4-0.7 0.4-1.7 0-3 1.3-3 3s1.3 3 3 3h0.2c0.3 0 0.5 0.2 0.6 0.4s0.1 0.5-0.2 0.8c-0.6 0.6-0.9 1.3-0.9 2.1s0.3 1.5 0.9 2.1c0 0 0 0 0 0 1.2 1.2 3.1 1.2 4.3-0.1 0.2-0.2 0.5-0.2 0.8-0.1s0.4 0.3 0.4 0.7c0 1.7 1.3 3 3 3s3-1.3 3-3v-0.2c0-0.3 0.2-0.5 0.4-0.6s0.5-0.1 0.8 0.2c1.2 1.2 3.1 1.2 4.2 0 1.2-1.2 1.2-3.1-0.1-4.3-0.1-0.2-0.2-0.5-0.1-0.7 0 0 0 0 0 0zM18.5 14.6c-0.4 1-0.2 2.1 0.6 3 0.2 0.2 0.3 0.4 0.3 0.7s-0.1 0.5-0.3 0.7c-0.2 0.2-0.4 0.3-0.7 0.3 0 0 0 0 0 0-0.3 0-0.5-0.1-0.8-0.4-0.8-0.8-1.9-1-2.9-0.5-1 0.4-1.6 1.4-1.6 2.4v0.2c0 0.6-0.4 1-1 1s-1-0.4-1-1c0 0 0-0.1 0-0.1 0-1.1-0.7-2-1.7-2.4-0.3-0.2-0.7-0.2-1.1-0.2-0.7 0-1.4 0.3-1.9 0.8-0.4 0.4-1 0.4-1.4 0 0 0 0 0 0 0v0c-0.2-0.2-0.3-0.4-0.3-0.7s0.1-0.5 0.4-0.8c0.8-0.8 1-1.9 0.5-2.9-0.4-1-1.4-1.6-2.4-1.6h-0.2c-0.6 0-1-0.4-1-1s0.4-1 1-1c0 0 0.1 0 0.1 0 1.1 0 2-0.7 2.4-1.7s0.2-2.1-0.6-3c-0.4-0.4-0.4-1 0-1.4s1-0.4 1.5 0.1c0.7 0.7 1.8 0.9 2.7 0.6 0.1 0 0.2 0 0.3-0.1 1-0.4 1.6-1.4 1.6-2.4v-0.2c0-0.6 0.4-1 1-1s1 0.4 1 1.1c0 1.1 0.6 2 1.6 2.4s2.1 0.2 3-0.6c0.2-0.2 0.4-0.3 0.7-0.3v0c0.3 0 0.5 0.1 0.7 0.3 0 0 0 0 0 0 0.4 0.4 0.4 1-0.1 1.5-0.7 0.7-0.9 1.8-0.6 2.7 0 0.1 0 0.2 0.1 0.3 0.4 1 1.4 1.6 2.4 1.6h0.2c0.6 0 1 0.4 1 1s-0.4 1-1.1 1c-1 0-2 0.6-2.4 1.6z"></path>
</symbol>
<symbol id="icon-x" viewBox="0 0 24 24">
<title>x</title>
<path d="M13.4 12l5.3-5.3c0.4-0.4 0.4-1 0-1.4s-1-0.4-1.4 0l-5.3 5.3-5.3-5.3c-0.4-0.4-1-0.4-1.4 0s-0.4 1 0 1.4l5.3 5.3-5.3 5.3c-0.4 0.4-0.4 1 0 1.4 0.2 0.2 0.4 0.3 0.7 0.3s0.5-0.1 0.7-0.3l5.3-5.3 5.3 5.3c0.2 0.2 0.5 0.3 0.7 0.3s0.5-0.1 0.7-0.3c0.4-0.4 0.4-1 0-1.4l-5.3-5.3z"></path>
</symbol>
</defs>
</svg>
